<?xml version="1.0" encoding="UTF-8" standalone="no" ?>
<!DOCTYPE svg PUBLIC "-//W3C//DTD SVG 1.1//EN" "http://www.w3.org/Graphics/SVG/1.1/DTD/svg11.dtd">
<svg xmlns="http://www.w3.org/2000/svg" xmlns:xlink="http://www.w3.org/1999/xlink" version="1.1" width="1080" height="1080" viewBox="0 0 1080 1080" xml:space="preserve">
<desc>Created with Fabric.js 5.2.4</desc>
<defs>
</defs>
<rect x="0" y="0" width="100%" height="100%" fill="transparent"></rect>
<g transform="matrix(1 0 0 1 540 540)" id="b0cca6a1-4ad4-4498-ab40-eb94a8161fb8"  >
</g>
<g transform="matrix(1 0 0 1 540 540)" id="74abd065-8989-4b64-9de0-6eaf05595868"  >
<rect style="stroke: none; stroke-width: 1; stroke-dasharray: none; stroke-linecap: butt; stroke-dashoffset: 0; stroke-linejoin: miter; stroke-miterlimit: 4; fill: rgb(255,255,255); fill-rule: nonzero; opacity: 1; visibility: hidden;" vector-effect="non-scaling-stroke"  x="-540" y="-540" rx="0" ry="0" width="1080" height="1080" />
</g>
<g transform="matrix(34.65 0 0 34.65 539.03 540)"  >
<path style="stroke: none; stroke-width: 1; stroke-dasharray: none; stroke-linecap: butt; stroke-dashoffset: 0; stroke-linejoin: miter; stroke-miterlimit: 4; fill: rgb(255,255,255); fill-rule: nonzero; opacity: 1;" vector-effect="non-scaling-stroke"  transform=" translate(-103.68, -15.39)" d="M 97.8154 2.25679 C 99.8462 2.57473 101.717 2.7337 103.428 2.7337 L 103.742 2.7337 C 105.452 2.7337 107.366 2.57473 109.483 2.25679 L 109.52 2.25679 C 109.766 2.25679 109.963 2.34239 110.111 2.51359 L 110.111 7.63111 C 109.975 7.81454 109.76 7.90625 109.465 7.90625 L 108.634 7.90625 C 108.178 7.90625 107.951 8.09579 107.951 8.47486 C 108.788 10.9817 109.452 12.5346 109.945 13.1338 C 110.277 13.5374 110.658 13.8675 111.089 14.1243 L 111.089 14.1427 C 110.917 14.4239 110.831 14.7846 110.831 15.2249 L 110.831 15.2432 C 110.831 16.2337 111.292 17.8478 112.215 20.0856 C 112.572 20.5136 113.102 20.7276 113.803 20.7276 L 114.265 20.7276 C 114.609 20.7276 114.849 20.8193 114.985 21.0027 L 114.985 26.4871 C 114.825 26.6827 114.603 26.7806 114.32 26.7806 C 112.978 26.5849 111.698 26.4871 110.48 26.4871 L 110.314 26.4871 C 109.058 26.4871 107.569 26.5849 105.846 26.7806 C 105.588 26.7806 105.378 26.6827 105.218 26.4871 L 105.218 21.0027 C 105.255 20.8193 105.742 20.7092 106.677 20.6726 C 107.415 20.428 107.785 20.0489 107.785 19.5353 L 107.785 19.4803 C 107.785 19.3336 107.508 18.5326 106.954 17.0774 C 106.831 16.6617 106.615 16.3621 106.308 16.1787 C 105.951 16.0075 105.582 15.9219 105.2 15.9219 L 102.043 15.9219 C 101.145 15.9219 100.566 16.3193 100.308 17.1141 C 99.7415 18.5571 99.4585 19.3641 99.4585 19.5353 C 99.4585 20.1101 99.8954 20.4952 100.769 20.6909 C 101.495 20.6909 101.902 20.7887 101.988 20.9844 L 101.988 26.5238 C 101.84 26.695 101.618 26.7806 101.323 26.7806 C 99.7723 26.536 98.2523 26.4137 96.7631 26.4137 L 96.7262 26.4137 C 95.6185 26.4137 94.3385 26.536 92.8862 26.7806 C 92.64 26.7806 92.4308 26.6827 92.2585 26.4871 L 92.2585 21.0027 C 92.3938 20.8193 92.6338 20.7276 92.9785 20.7276 L 93.4215 20.7276 C 94.2585 20.7276 94.8185 20.4524 95.1015 19.9022 C 96.0492 17.6766 96.5231 16.1236 96.5231 15.2432 C 96.5231 14.8274 96.4123 14.4423 96.1908 14.0876 L 96.1908 14.0326 C 97.0769 13.3356 97.6923 12.5713 98.0369 11.7398 C 98.3323 11.1895 98.7692 10.1073 99.3477 8.49321 C 99.3477 8.1019 99.12 7.90625 98.6646 7.90625 L 97.8338 7.90625 C 97.5262 7.90625 97.3108 7.81454 97.1877 7.63111 L 97.1877 2.51359 C 97.3354 2.34239 97.5446 2.25679 97.8154 2.25679 Z M 110.517 2.34851 L 110.535 2.34851 C 110.954 2.55639 111.163 2.94769 111.163 3.52242 L 111.163 8.18139 C 111.163 8.85394 110.88 9.30027 110.314 9.52038 C 109.957 9.63044 109.588 9.68546 109.206 9.68546 C 109.846 11.5442 110.332 12.6997 110.665 13.1522 C 110.677 13.1644 110.751 13.2622 110.886 13.4457 L 110.886 13.464 C 110.271 13.0971 109.662 12.0639 109.058 10.3641 L 108.375 8.43818 L 108.468 8.38315 L 109.428 8.38315 C 110.154 8.28533 110.517 8.07133 110.517 7.74117 L 110.517 2.34851 Z M 96.6339 2.51359 L 96.6708 2.51359 L 96.6708 7.68614 C 96.6708 8.08967 97.0585 8.32201 97.8338 8.38315 L 98.7385 8.38315 C 98.7754 8.39538 98.7938 8.41372 98.7938 8.43818 L 98.7938 8.47486 C 98.2031 10.2602 97.6738 11.4891 97.2062 12.1617 L 97.2062 12.1067 C 97.5508 11.4463 97.8831 10.6393 98.2031 9.68546 L 98.1846 9.68546 C 96.8923 9.68546 96.2462 9.1841 96.2462 8.18139 L 96.2462 3.61413 C 96.2462 3.0394 96.3754 2.67255 96.6339 2.51359 Z M 101.526 13.8308 C 101.526 14.3933 101.926 14.7785 102.726 14.9864 C 102.874 15.0353 103.034 15.0598 103.206 15.0598 L 104.148 15.0598 C 104.911 15.0598 105.44 14.7724 105.735 14.1977 C 105.772 14.1243 105.791 14.0204 105.791 13.8859 L 105.791 13.8125 C 105.791 13.6291 105.452 12.5102 104.775 10.4558 C 104.431 9.55095 104.068 9.09851 103.686 9.09851 C 103.194 9.09851 102.751 9.78329 102.357 11.1529 C 102.111 11.8499 101.834 12.7425 101.526 13.8308 Z M 103.575 9.59375 L 103.612 9.59375 C 103.945 9.59375 104.474 10.9144 105.2 13.5557 C 105.249 13.6168 105.274 13.7086 105.274 13.8308 L 105.274 13.9409 C 105.274 14.0876 105.145 14.2527 104.886 14.4361 L 104.794 14.4361 C 104.425 13.0788 104.074 11.9966 103.742 11.1895 L 103.723 11.1895 C 103.403 12.0088 103.04 13.1155 102.634 14.5095 L 102.615 14.5095 C 102.172 14.375 101.951 14.161 101.951 13.8675 C 102.517 11.8132 103.003 10.4375 103.409 9.74049 L 103.575 9.59375 Z M 111.735 14.0876 C 112.228 14.2221 112.474 14.43 112.474 14.7113 L 112.474 14.7663 C 112.474 14.9986 112.32 15.1882 112.012 15.3349 C 111.938 15.4694 111.883 15.6773 111.846 15.9586 C 111.846 16.7045 112.234 18.0985 113.009 20.1406 C 112.702 20.1406 112.431 19.7126 112.197 18.8567 C 111.545 17.2181 111.218 16.0319 111.218 15.2982 C 111.218 14.699 111.391 14.2955 111.735 14.0876 Z M 95.4523 14.1243 C 95.8338 14.3322 96.0246 14.7418 96.0246 15.3533 C 96.0246 16.1114 95.5385 17.6094 94.5662 19.8471 L 94.4185 19.9572 L 94.4185 19.9022 C 95.1938 18.0312 95.5815 16.7595 95.5815 16.087 L 95.5815 15.9769 C 95.5815 15.5611 95.3969 15.2982 95.0277 15.1882 C 94.8677 15.0537 94.7877 14.9253 94.7877 14.803 L 94.7877 14.7113 C 94.7877 14.4178 95.0092 14.2221 95.4523 14.1243 Z M 102.043 16.3988 L 105.145 16.3988 C 105.883 16.3988 106.326 16.6923 106.474 17.2792 C 107.003 18.6977 107.268 19.4436 107.268 19.517 L 107.268 19.5904 C 107.268 19.8105 107.108 19.9817 106.788 20.1039 C 106.308 18.7466 106.012 17.9946 105.902 17.8478 C 105.754 17.7378 105.489 17.6827 105.108 17.6827 L 102.302 17.6827 C 101.772 17.6827 101.471 17.7867 101.397 17.9946 C 100.855 19.4253 100.56 20.159 100.511 20.1957 L 100.474 20.1957 C 100.191 20.0856 99.9938 19.9144 99.8831 19.6821 L 99.8831 19.462 C 100.498 17.7622 100.868 16.8573 100.991 16.7473 C 101.249 16.5149 101.6 16.3988 102.043 16.3988 Z M 102.375 20.8193 L 102.412 20.8193 C 102.831 21.0516 103.04 21.3696 103.04 21.7731 L 103.04 27.3125 C 103.04 27.9239 102.566 28.3274 101.618 28.5231 L 101.36 28.5231 C 99.5138 28.2785 98.08 28.1563 97.0585 28.1563 C 95.8892 28.1563 94.5538 28.2785 93.0523 28.5231 L 92.9231 28.5231 C 92.2215 28.5231 91.7108 28.2235 91.3908 27.6243 L 91.3538 27.4226 L 91.3538 21.608 C 91.3538 21.4368 91.4769 21.2289 91.7231 20.9844 L 91.76 20.9844 L 91.76 26.5238 C 91.8708 27.0129 92.24 27.2575 92.8677 27.2575 C 94.3323 27.0129 95.6062 26.8906 96.6892 26.8906 C 98.08 26.8906 99.6246 27.0129 101.323 27.2575 C 102.049 27.1474 102.412 26.909 102.412 26.5421 L 102.412 21.0027 L 102.375 20.8193 Z M 115.354 20.8193 L 115.409 20.8193 C 115.803 21.0639 116 21.3635 116 21.7181 L 116 27.4226 C 116 27.8261 115.68 28.1563 115.04 28.413 C 114.843 28.4864 114.652 28.5231 114.468 28.5231 L 114.357 28.5231 C 112.782 28.3397 111.52 28.248 110.572 28.248 C 109.44 28.248 107.883 28.3397 105.902 28.5231 L 105.883 28.5231 C 105.231 28.5231 104.726 28.2418 104.369 27.6793 C 104.332 27.5082 104.314 27.3859 104.314 27.3125 L 104.314 21.8281 C 104.314 21.4613 104.437 21.1861 104.683 21.0027 L 104.72 21.0027 L 104.72 26.3404 C 104.72 26.7439 104.898 27.0129 105.255 27.1474 C 105.502 27.2208 105.692 27.2575 105.828 27.2575 C 107.551 27.0618 109.065 26.964 110.369 26.964 C 111.514 26.964 112.831 27.0618 114.32 27.2575 C 114.837 27.2575 115.188 27.0496 115.372 26.6338 L 115.372 20.9477 L 115.354 20.8193 Z" stroke-linecap="round" />
</g>
<g transform="matrix(8.05 0 0 8.05 92.41 531.92)"  >
<path style="stroke: none; stroke-width: 1; stroke-dasharray: none; stroke-linecap: butt; stroke-dashoffset: 0; stroke-linejoin: miter; stroke-miterlimit: 4; fill: rgb(255,255,255); fill-rule: nonzero; opacity: 1;" vector-effect="non-scaling-stroke"  transform=" translate(-9.5, -14.5)" d="M 9.5 5 L 12.1421 11.6793 L 19 12.2574 L 14.5 17 L 15.3713 24 L 9.5 20.2293 L 3.62868 24 L 5.225 16.9635 L 0 12.2574 L 6.8579 11.6793 L 9.5 5 Z" stroke-linecap="round" />
</g>
<g transform="matrix(8.05 0 0 8.05 92.41 531.92)"  >
<path style="stroke: none; stroke-width: 1; stroke-dasharray: none; stroke-linecap: butt; stroke-dashoffset: 0; stroke-linejoin: miter; stroke-miterlimit: 4; fill: rgb(255,255,255); fill-rule: nonzero; opacity: 1;" vector-effect="non-scaling-stroke"  transform=" translate(-9.5, -14.5)" d="M 9.5 5 L 12.1421 11.6793 L 19 12.2574 L 14.5 17 L 15.3713 24 L 9.5 20.2293 L 3.62868 24 L 5.225 16.9635 L 0 12.2574 L 6.8579 11.6793 L 9.5 5 Z" stroke-linecap="round" />
</g>
<g transform="matrix(8.05 0 0 8.05 985.57 531.92)"  >
<path style="stroke: none; stroke-width: 1; stroke-dasharray: none; stroke-linecap: butt; stroke-dashoffset: 0; stroke-linejoin: miter; stroke-miterlimit: 4; fill: rgb(255,255,255); fill-rule: nonzero; opacity: 1;" vector-effect="non-scaling-stroke"  transform=" translate(-120.5, -14.5)" d="M 120.5 5 L 123.142 11.6793 L 130 12.2574 L 124.775 16.9635 L 126.371 24 L 120.5 20.2293 L 114.629 24 L 115.5 16.9635 L 111 12.2574 L 117.858 11.6793 L 120.5 5 Z" stroke-linecap="round" />
</g>
<g transform="matrix(8.05 0 0 8.05 987.58 539.96)"  >
<path style="stroke: none; stroke-width: 1; stroke-dasharray: none; stroke-linecap: butt; stroke-dashoffset: 0; stroke-linejoin: miter; stroke-miterlimit: 4; fill: rgb(255,255,255); fill-rule: nonzero; opacity: 1;" vector-effect="non-scaling-stroke"  transform=" translate(-120.5, -14.5)" d="M 120.5 5 L 123.142 11.6793 L 130 12.2574 L 124.775 16.9635 L 126.371 24 L 120.5 20.2293 L 114.629 24 L 115.5 16.9635 L 111 12.2574 L 117.858 11.6793 L 120.5 5 Z" stroke-linecap="round" />
</g>
<g transform="matrix(8.05 0 0 8.05 92.41 535.72)"  >
<path style="stroke: none; stroke-width: 1; stroke-dasharray: none; stroke-linecap: butt; stroke-dashoffset: 0; stroke-linejoin: miter; stroke-miterlimit: 4; fill: rgb(0,128,255); fill-rule: nonzero; opacity: 1;" vector-effect="non-scaling-stroke"  transform=" translate(-9.5, -14.97)" d="M 9.5 10 L 10.9548 13.4977 L 14.7308 13.8004 L 11.8539 16.2648 L 12.7328 19.9496 L 9.5 17.975 L 6.26718 19.9496 L 7.14614 16.2648 L 4.26919 13.8004 L 8.04523 13.4977 L 9.5 10 Z" stroke-linecap="round" />
</g>
<g transform="matrix(8.05 0 0 8.05 985.57 535.72)"  >
<path style="stroke: none; stroke-width: 1; stroke-dasharray: none; stroke-linecap: butt; stroke-dashoffset: 0; stroke-linejoin: miter; stroke-miterlimit: 4; fill: rgb(0,128,255); fill-rule: nonzero; opacity: 1;" vector-effect="non-scaling-stroke"  transform=" translate(-120.5, -14.97)" d="M 120.5 10 L 121.955 13.4977 L 125.731 13.8004 L 122.854 16.2648 L 123.733 19.9496 L 120.5 17.975 L 117.267 19.9496 L 118.146 16.2648 L 115.269 13.8004 L 119.045 13.4977 L 120.5 10 Z" stroke-linecap="round" />
</g>
<g transform="matrix(33.15 0 0 33.15 538.94 539.91)"  >
<path style="stroke: none; stroke-width: 1; stroke-dasharray: none; stroke-linecap: butt; stroke-dashoffset: 0; stroke-linejoin: miter; stroke-miterlimit: 4; fill: rgb(0,128,255); fill-rule: nonzero; opacity: 1;" vector-effect="non-scaling-stroke"  transform=" translate(-27.2, -15.39)" d="M 21.3982 2.25679 C 23.409 2.57473 25.2615 2.7337 26.9555 2.7337 L 27.2662 2.7337 C 28.9602 2.7337 30.8553 2.57473 32.9515 2.25679 L 32.9881 2.25679 C 33.2318 2.25679 33.4268 2.34239 33.573 2.51359 L 33.573 7.63111 C 33.439 7.81454 33.2257 7.90625 32.9332 7.90625 L 32.1106 7.90625 C 31.6597 7.90625 31.4342 8.09579 31.4342 8.47486 C 32.2629 10.9817 32.921 12.5346 33.4085 13.1338 C 33.7376 13.5374 34.1154 13.8675 34.5419 14.1243 L 34.5419 14.1427 C 34.3713 14.4239 34.286 14.7846 34.286 15.2249 L 34.286 15.2432 C 34.286 16.2337 34.743 17.8478 35.657 20.0856 C 36.0104 20.5136 36.5345 20.7276 37.2291 20.7276 L 37.6862 20.7276 C 38.0274 20.7276 38.265 20.8193 38.3991 21.0027 L 38.3991 26.4871 C 38.2407 26.6827 38.0213 26.7806 37.741 26.7806 C 36.4126 26.5849 35.1452 26.4871 33.9386 26.4871 L 33.7741 26.4871 C 32.531 26.4871 31.0564 26.5849 29.3502 26.7806 C 29.0943 26.7806 28.8871 26.6827 28.7287 26.4871 L 28.7287 21.0027 C 28.7652 20.8193 29.2466 20.7092 30.1729 20.6726 C 30.9041 20.428 31.2697 20.0489 31.2697 19.5353 L 31.2697 19.4803 C 31.2697 19.3336 30.9955 18.5326 30.4471 17.0774 C 30.3252 16.6617 30.1119 16.3621 29.8072 16.1787 C 29.4538 16.0075 29.0882 15.9219 28.7104 15.9219 L 25.5844 15.9219 C 24.6948 15.9219 24.122 16.3193 23.8661 17.1141 C 23.3055 18.5571 23.0252 19.3641 23.0252 19.5353 C 23.0252 20.1101 23.4578 20.4952 24.3231 20.6909 C 25.0421 20.6909 25.4443 20.7887 25.5296 20.9844 L 25.5296 26.5238 C 25.3833 26.695 25.164 26.7806 24.8715 26.7806 C 23.3359 26.536 21.8308 26.4137 20.3562 26.4137 L 20.3196 26.4137 C 19.2228 26.4137 17.9554 26.536 16.5173 26.7806 C 16.2735 26.7806 16.0664 26.6827 15.8957 26.4871 L 15.8957 21.0027 C 16.0298 20.8193 16.2675 20.7276 16.6087 20.7276 L 17.0474 20.7276 C 17.8761 20.7276 18.4306 20.4524 18.711 19.9022 C 19.6494 17.6766 20.1186 16.1236 20.1186 15.2432 C 20.1186 14.8274 20.0089 14.4423 19.7895 14.0876 L 19.7895 14.0326 C 20.667 13.3356 21.2763 12.5713 21.6176 11.7398 C 21.91 11.1895 22.3427 10.1073 22.9155 8.49321 C 22.9155 8.1019 22.69 7.90625 22.2391 7.90625 L 21.4165 7.90625 C 21.1118 7.90625 20.8985 7.81454 20.7767 7.63111 L 20.7767 2.51359 C 20.9229 2.34239 21.1301 2.25679 21.3982 2.25679 Z M 33.9752 2.34851 L 33.9935 2.34851 C 34.4078 2.55639 34.615 2.94769 34.615 3.52242 L 34.615 8.18139 C 34.615 8.85394 34.3347 9.30027 33.7741 9.52038 C 33.4207 9.63043 33.0551 9.68546 32.6773 9.68546 C 33.311 11.5442 33.7924 12.6997 34.1214 13.1522 C 34.1336 13.1644 34.2068 13.2622 34.3408 13.4457 L 34.3408 13.464 C 33.7315 13.0971 33.1282 12.0639 32.531 10.3641 L 31.8547 8.43818 L 31.9461 8.38315 L 32.8967 8.38315 C 33.6157 8.28533 33.9752 8.07133 33.9752 7.74117 L 33.9752 2.34851 Z M 20.2282 2.51359 L 20.2648 2.51359 L 20.2648 7.68614 C 20.2648 8.08967 20.6487 8.32201 21.4165 8.38315 L 22.3122 8.38315 C 22.3488 8.39538 22.3671 8.41372 22.3671 8.43818 L 22.3671 8.47486 C 21.7821 10.2602 21.258 11.4891 20.7949 12.1617 L 20.7949 12.1067 C 21.1362 11.4463 21.4652 10.6393 21.7821 9.68546 L 21.7638 9.68546 C 20.4842 9.68546 19.8443 9.1841 19.8443 8.18139 L 19.8443 3.61413 C 19.8443 3.0394 19.9723 2.67255 20.2282 2.51359 Z M 25.0726 13.8308 C 25.0726 14.3933 25.4687 14.7785 26.2608 14.9864 C 26.4071 15.0353 26.5655 15.0598 26.7361 15.0598 L 27.6684 15.0598 C 28.424 15.0598 28.9481 14.7724 29.2405 14.1977 C 29.2771 14.1243 29.2954 14.0204 29.2954 13.8859 L 29.2954 13.8125 C 29.2954 13.6291 28.9602 12.5102 28.29 10.4558 C 27.9487 9.55095 27.5892 9.09851 27.2114 9.09851 C 26.7239 9.09851 26.2852 9.78329 25.8952 11.1529 C 25.6515 11.8499 25.3773 12.7425 25.0726 13.8308 Z M 27.1017 9.59375 L 27.1383 9.59375 C 27.4673 9.59375 27.9914 10.9144 28.7104 13.5557 C 28.7592 13.6168 28.7835 13.7086 28.7835 13.8308 L 28.7835 13.9409 C 28.7835 14.0876 28.6556 14.2527 28.3996 14.4361 L 28.3082 14.4361 C 27.9426 13.0788 27.5953 11.9966 27.2662 11.1895 L 27.248 11.1895 C 26.9311 12.0088 26.5716 13.1155 26.1694 14.5095 L 26.1511 14.5095 C 25.7124 14.375 25.493 14.161 25.493 13.8675 C 26.0536 11.8132 26.535 10.4375 26.9372 9.74049 L 27.1017 9.59375 Z M 35.1817 14.0876 C 35.6692 14.2221 35.9129 14.43 35.9129 14.7113 L 35.9129 14.7663 C 35.9129 14.9986 35.7606 15.1882 35.4559 15.3349 C 35.3828 15.4694 35.328 15.6773 35.2914 15.9586 C 35.2914 16.7045 35.6753 18.0985 36.4431 20.1406 C 36.1384 20.1406 35.8703 19.7126 35.6387 18.8567 C 34.9928 17.2181 34.6699 16.0319 34.6699 15.2982 C 34.6699 14.699 34.8405 14.2955 35.1817 14.0876 Z M 19.0583 14.1243 C 19.4361 14.3322 19.625 14.7418 19.625 15.3533 C 19.625 16.1114 19.1436 17.6094 18.1808 19.8471 L 18.0346 19.9572 L 18.0346 19.9022 C 18.8024 18.0312 19.1862 16.7595 19.1862 16.087 L 19.1862 15.9769 C 19.1862 15.5611 19.0034 15.2982 18.6378 15.1882 C 18.4794 15.0537 18.4002 14.9253 18.4002 14.803 L 18.4002 14.7113 C 18.4002 14.4178 18.6195 14.2221 19.0583 14.1243 Z M 25.5844 16.3988 L 28.6556 16.3988 C 29.3868 16.3988 29.8255 16.6923 29.9718 17.2792 C 30.4958 18.6977 30.7578 19.4436 30.7578 19.517 L 30.7578 19.5904 C 30.7578 19.8105 30.5994 19.9817 30.2825 20.1039 C 29.8072 18.7466 29.5148 17.9946 29.4051 17.8478 C 29.2588 17.7378 28.9968 17.6827 28.619 17.6827 L 25.8404 17.6827 C 25.3163 17.6827 25.0177 17.7867 24.9446 17.9946 C 24.4084 19.4253 24.1159 20.159 24.0671 20.1957 L 24.0306 20.1957 C 23.7503 20.0856 23.5553 19.9144 23.4456 19.6821 L 23.4456 19.462 C 24.055 17.7622 24.4206 16.8573 24.5424 16.7473 C 24.7984 16.5149 25.1457 16.3988 25.5844 16.3988 Z M 25.9135 20.8193 L 25.95 20.8193 C 26.3644 21.0516 26.5716 21.3696 26.5716 21.7731 L 26.5716 27.3125 C 26.5716 27.9239 26.1024 28.3274 25.164 28.5231 L 24.9081 28.5231 C 23.08 28.2785 21.6602 28.1562 20.6487 28.1562 C 19.4909 28.1562 18.1686 28.2785 16.6818 28.5231 L 16.5538 28.5231 C 15.8592 28.5231 15.3534 28.2235 15.0366 27.6243 L 15 27.4226 L 15 21.608 C 15 21.4368 15.1219 21.2289 15.3656 20.9844 L 15.4022 20.9844 L 15.4022 26.5238 C 15.5119 27.0129 15.8775 27.2575 16.499 27.2575 C 17.9493 27.0129 19.2106 26.8906 20.2831 26.8906 C 21.6602 26.8906 23.1897 27.0129 24.8715 27.2575 C 25.5905 27.1474 25.95 26.909 25.95 26.5421 L 25.95 21.0027 L 25.9135 20.8193 Z M 38.7647 20.8193 L 38.8195 20.8193 C 39.2095 21.0639 39.4045 21.3635 39.4045 21.7181 L 39.4045 27.4226 C 39.4045 27.8261 39.0877 28.1562 38.4539 28.413 C 38.2589 28.4864 38.07 28.5231 37.8872 28.5231 L 37.7776 28.5231 C 36.2176 28.3397 34.9684 28.248 34.03 28.248 C 32.9088 28.248 31.3672 28.3397 29.4051 28.5231 L 29.3868 28.5231 C 28.7409 28.5231 28.2412 28.2418 27.8878 27.6793 C 27.8512 27.5082 27.8329 27.3859 27.8329 27.3125 L 27.8329 21.8281 C 27.8329 21.4613 27.9548 21.1861 28.1986 21.0027 L 28.2351 21.0027 L 28.2351 26.3404 C 28.2351 26.7439 28.4118 27.0129 28.7652 27.1474 C 29.009 27.2208 29.1979 27.2575 29.3319 27.2575 C 31.0381 27.0618 32.5371 26.964 33.829 26.964 C 34.9624 26.964 36.2664 27.0618 37.741 27.2575 C 38.2529 27.2575 38.6002 27.0496 38.783 26.6338 L 38.783 20.9477 L 38.7647 20.8193 Z" stroke-linecap="round" />
</g>
</svg>