<svg width="122" height="27" viewBox="0 0 122 27" fill="none" xmlns="http://www.w3.org/2000/svg">
<path d="M5.5 8L6.95477 11.4977L10.7308 11.8004L7.85386 14.2648L8.73282 17.9496L5.5 15.975L2.26718 17.9496L3.14614 14.2648L0.269189 11.8004L4.04523 11.4977L5.5 8Z" fill="white"/>
<path d="M116.5 8L117.955 11.4977L121.731 11.8004L118.854 14.2648L119.733 17.9496L116.5 15.975L113.267 17.9496L114.146 14.2648L111.269 11.8004L115.045 11.4977L116.5 8Z" fill="white"/>
<path d="M17.3982 0.256793C19.409 0.574728 21.2615 0.733696 22.9555 0.733696H23.2662C24.9602 0.733696 26.8553 0.574728 28.9515 0.256793H28.9881C29.2318 0.256793 29.4268 0.342391 29.573 0.513587V5.63111C29.439 5.81454 29.2257 5.90625 28.9332 5.90625H28.1106C27.6597 5.90625 27.4342 6.09579 27.4342 6.47486C28.2629 8.98166 28.921 10.5346 29.4085 11.1338C29.7376 11.5374 30.1154 11.8675 30.5419 12.1243V12.1427C30.3713 12.4239 30.286 12.7846 30.286 13.2249V13.2432C30.286 14.2337 30.743 15.8478 31.657 18.0856C32.0104 18.5136 32.5345 18.7276 33.2291 18.7276H33.6862C34.0274 18.7276 34.265 18.8193 34.3991 19.0027V24.4871C34.2407 24.6827 34.0213 24.7806 33.741 24.7806C32.4126 24.5849 31.1452 24.4871 29.9386 24.4871H29.7741C28.531 24.4871 27.0564 24.5849 25.3502 24.7806C25.0943 24.7806 24.8871 24.6827 24.7287 24.4871V19.0027C24.7652 18.8193 25.2466 18.7092 26.1729 18.6726C26.9041 18.428 27.2697 18.0489 27.2697 17.5353V17.4803C27.2697 17.3336 26.9955 16.5326 26.4471 15.0774C26.3252 14.6617 26.1119 14.3621 25.8072 14.1787C25.4538 14.0075 25.0882 13.9219 24.7104 13.9219H21.5844C20.6948 13.9219 20.122 14.3193 19.8661 15.1141C19.3055 16.5571 19.0252 17.3641 19.0252 17.5353C19.0252 18.1101 19.4578 18.4952 20.3231 18.6909C21.0421 18.6909 21.4443 18.7887 21.5296 18.9844V24.5238C21.3833 24.695 21.164 24.7806 20.8715 24.7806C19.3359 24.536 17.8308 24.4137 16.3562 24.4137H16.3196C15.2228 24.4137 13.9554 24.536 12.5173 24.7806C12.2735 24.7806 12.0664 24.6827 11.8957 24.4871V19.0027C12.0298 18.8193 12.2675 18.7276 12.6087 18.7276H13.0474C13.8761 18.7276 14.4306 18.4524 14.711 17.9022C15.6494 15.6766 16.1186 14.1236 16.1186 13.2432C16.1186 12.8274 16.0089 12.4423 15.7895 12.0876V12.0326C16.667 11.3356 17.2763 10.5713 17.6176 9.73981C17.91 9.18954 18.3427 8.10734 18.9155 6.49321C18.9155 6.1019 18.69 5.90625 18.2391 5.90625H17.4165C17.1118 5.90625 16.8985 5.81454 16.7767 5.63111V0.513587C16.9229 0.342391 17.1301 0.256793 17.3982 0.256793ZM29.9752 0.348505H29.9935C30.4078 0.556386 30.615 0.94769 30.615 1.52242V6.18139C30.615 6.85394 30.3347 7.30027 29.7741 7.52038C29.4207 7.63043 29.0551 7.68546 28.6773 7.68546C29.311 9.54416 29.7924 10.6997 30.1214 11.1522C30.1336 11.1644 30.2068 11.2622 30.3408 11.4457V11.464C29.7315 11.0971 29.1282 10.0639 28.531 8.36413L27.8547 6.43818L27.9461 6.38315H28.8967C29.6157 6.28533 29.9752 6.07133 29.9752 5.74117V0.348505ZM16.2282 0.513587H16.2648V5.68614C16.2648 6.08967 16.6487 6.32201 17.4165 6.38315H18.3122C18.3488 6.39538 18.3671 6.41372 18.3671 6.43818V6.47486C17.7821 8.26019 17.258 9.48913 16.7949 10.1617V10.1067C17.1362 9.44633 17.4652 8.63927 17.7821 7.68546H17.7638C16.4842 7.68546 15.8443 7.1841 15.8443 6.18139V1.61413C15.8443 1.0394 15.9723 0.672554 16.2282 0.513587ZM21.0726 11.8308C21.0726 12.3933 21.4687 12.7785 22.2608 12.9864C22.4071 13.0353 22.5655 13.0598 22.7361 13.0598H23.6684C24.424 13.0598 24.9481 12.7724 25.2405 12.1977C25.2771 12.1243 25.2954 12.0204 25.2954 11.8859V11.8125C25.2954 11.6291 24.9602 10.5102 24.29 8.45584C23.9487 7.55095 23.5892 7.09851 23.2114 7.09851C22.7239 7.09851 22.2852 7.78329 21.8952 9.15285C21.6515 9.84986 21.3773 10.7425 21.0726 11.8308ZM23.1017 7.59375H23.1383C23.4673 7.59375 23.9914 8.9144 24.7104 11.5557C24.7592 11.6168 24.7835 11.7086 24.7835 11.8308V11.9409C24.7835 12.0876 24.6556 12.2527 24.3996 12.4361H24.3082C23.9426 11.0788 23.5953 9.9966 23.2662 9.18954H23.248C22.9311 10.0088 22.5716 11.1155 22.1694 12.5095H22.1511C21.7124 12.375 21.493 12.161 21.493 11.8675C22.0536 9.81318 22.535 8.4375 22.9372 7.74049L23.1017 7.59375ZM31.1817 12.0876C31.6692 12.2221 31.9129 12.43 31.9129 12.7113V12.7663C31.9129 12.9986 31.7606 13.1882 31.4559 13.3349C31.3828 13.4694 31.328 13.6773 31.2914 13.9586C31.2914 14.7045 31.6753 16.0985 32.4431 18.1406C32.1384 18.1406 31.8703 17.7126 31.6387 16.8567C30.9928 15.2181 30.6699 14.0319 30.6699 13.2982C30.6699 12.699 30.8405 12.2955 31.1817 12.0876ZM15.0583 12.1243C15.4361 12.3322 15.625 12.7418 15.625 13.3533C15.625 14.1114 15.1436 15.6094 14.1808 17.8471L14.0346 17.9572V17.9022C14.8024 16.0312 15.1862 14.7595 15.1862 14.087V13.9769C15.1862 13.5611 15.0034 13.2982 14.6378 13.1882C14.4794 13.0537 14.4002 12.9253 14.4002 12.803V12.7113C14.4002 12.4178 14.6195 12.2221 15.0583 12.1243ZM21.5844 14.3988H24.6556C25.3868 14.3988 25.8255 14.6923 25.9718 15.2792C26.4958 16.6977 26.7578 17.4436 26.7578 17.517V17.5904C26.7578 17.8105 26.5994 17.9817 26.2825 18.1039C25.8072 16.7466 25.5148 15.9946 25.4051 15.8478C25.2588 15.7378 24.9968 15.6827 24.619 15.6827H21.8404C21.3163 15.6827 21.0177 15.7867 20.9446 15.9946C20.4084 17.4253 20.1159 18.159 20.0671 18.1957H20.0306C19.7503 18.0856 19.5553 17.9144 19.4456 17.6821V17.462C20.055 15.7622 20.4206 14.8573 20.5424 14.7473C20.7984 14.5149 21.1457 14.3988 21.5844 14.3988ZM21.9135 18.8193H21.95C22.3644 19.0516 22.5716 19.3696 22.5716 19.7731V25.3125C22.5716 25.9239 22.1024 26.3274 21.164 26.5231H20.9081C19.08 26.2785 17.6602 26.1562 16.6487 26.1562C15.4909 26.1562 14.1686 26.2785 12.6818 26.5231H12.5538C11.8592 26.5231 11.3534 26.2235 11.0366 25.6243L11 25.4226V19.608C11 19.4368 11.1219 19.2289 11.3656 18.9844H11.4022V24.5238C11.5119 25.0129 11.8775 25.2575 12.499 25.2575C13.9493 25.0129 15.2106 24.8906 16.2831 24.8906C17.6602 24.8906 19.1897 25.0129 20.8715 25.2575C21.5905 25.1474 21.95 24.909 21.95 24.5421V19.0027L21.9135 18.8193ZM34.7647 18.8193H34.8195C35.2095 19.0639 35.4045 19.3635 35.4045 19.7181V25.4226C35.4045 25.8261 35.0877 26.1562 34.4539 26.413C34.2589 26.4864 34.07 26.5231 33.8872 26.5231H33.7776C32.2176 26.3397 30.9684 26.248 30.03 26.248C28.9088 26.248 27.3672 26.3397 25.4051 26.5231H25.3868C24.7409 26.5231 24.2412 26.2418 23.8878 25.6793C23.8512 25.5082 23.8329 25.3859 23.8329 25.3125V19.8281C23.8329 19.4613 23.9548 19.1861 24.1986 19.0027H24.2351V24.3404C24.2351 24.7439 24.4118 25.0129 24.7652 25.1474C25.009 25.2208 25.1979 25.2575 25.3319 25.2575C27.0381 25.0618 28.5371 24.964 29.829 24.964C30.9624 24.964 32.2664 25.0618 33.741 25.2575C34.2529 25.2575 34.6002 25.0496 34.783 24.6338V18.9477L34.7647 18.8193Z" fill="white"/>
<path d="M37.3057 0.183424C38.7681 0.452446 40.0783 0.586957 41.236 0.586957C42.345 0.586957 43.6186 0.452446 45.0567 0.183424H45.1481C45.5502 0.183424 45.794 0.464674 45.8793 1.02717C46.0499 1.49185 47.4453 5.60666 50.0655 13.3716C50.4189 13.8852 50.9369 14.142 51.6194 14.142C52.6187 14.142 53.222 13.6467 53.4291 12.6562C56.1347 4.52446 57.5057 0.434103 57.5423 0.38519C57.6763 0.275136 57.8469 0.20788 58.0541 0.183424H58.0907C59.6141 0.415761 60.6743 0.531929 61.2715 0.531929C61.5274 0.531929 61.7529 0.538043 61.9479 0.550272C62.9106 0.550272 64.2329 0.427989 65.9148 0.183424C66.1585 0.183424 66.3535 0.269022 66.4997 0.440217V5.57609C66.3657 5.75951 66.1219 5.85122 65.7685 5.85122H65.3115C64.5437 5.85122 64.0075 6.1447 63.7028 6.73166C63.6662 6.91508 63.648 7.05571 63.648 7.15353V8.85937C63.648 10.3268 63.9526 11.3539 64.562 11.9409V12.0143C63.9526 12.6135 63.648 14.1298 63.648 16.5632V17.3886C63.648 17.9755 63.977 18.373 64.6351 18.5808C64.7204 18.6542 65.214 18.7031 66.1158 18.7276C66.3474 18.8132 66.4754 18.8988 66.4997 18.9844V24.4871C66.3657 24.6705 66.1524 24.7622 65.8599 24.7622C64.2878 24.5788 62.8071 24.4871 61.4177 24.4871C60.26 24.4871 58.895 24.5788 57.3229 24.7622C57.067 24.7622 56.8598 24.6705 56.7014 24.4871V18.9844C56.7379 18.7887 57.1523 18.6909 57.9444 18.6909C58.9438 18.5442 59.4434 18.1284 59.4434 17.4436V16.0312C59.4434 15.4076 59.0352 14.9918 58.2186 14.784C58.0602 14.7717 57.9322 14.7656 57.8348 14.7656H57.6337C56.9024 14.7656 56.3906 15.0836 56.0981 15.7194C56.0981 15.7683 55.0195 18.7092 52.8624 24.5421C52.6796 24.6889 52.4542 24.7622 52.1861 24.7622H51.071C50.5713 24.7622 50.3214 24.6033 50.3214 24.2853C50.2727 24.212 49.1515 21.2221 46.9578 15.3159C46.5922 14.8879 46.0986 14.6739 45.4771 14.6739H45.3674C44.624 14.6739 44.1061 14.9674 43.8136 15.5543C43.777 15.6889 43.7587 15.7989 43.7587 15.8845V17.4253C43.7587 17.9878 44.0756 18.373 44.7093 18.5808C44.9896 18.6787 45.4527 18.7276 46.0986 18.7276C46.3546 18.8376 46.4886 18.9232 46.5008 18.9844V24.4871C46.3546 24.6705 46.1352 24.7622 45.8427 24.7622C44.1609 24.5543 42.7106 24.4504 41.4919 24.4504C40.3586 24.4504 38.9449 24.5543 37.2509 24.7622C37.0315 24.7622 36.8426 24.6705 36.6842 24.4871V18.9844C36.6842 18.7765 37.2265 18.6726 38.3111 18.6726C39.1398 18.4402 39.5542 18.0489 39.5542 17.4986C39.5664 16.447 39.5725 15.6399 39.5725 15.0774C39.5725 13.6223 39.1581 12.5584 38.3294 11.8859C39.1459 11.2255 39.5542 10.0639 39.5542 8.40082V7.15353C39.5542 6.41984 39.0424 5.98573 38.0186 5.85122H37.4337C37.0681 5.85122 36.8182 5.75951 36.6842 5.57609V0.440217C36.8304 0.269022 37.0376 0.183424 37.3057 0.183424ZM46.0804 0.238451C46.3729 0.38519 46.5861 0.648098 46.7202 1.02717C49.1698 8.29076 50.5652 12.4606 50.9064 13.5367C50.5774 13.5367 50.2849 13.017 50.029 11.9776C47.4819 4.53057 46.1657 0.617527 46.0804 0.238451ZM66.8653 0.275136C67.0603 0.275136 67.2614 0.470788 67.4686 0.862092C67.5052 0.935462 67.5234 1.00883 67.5234 1.0822V6.51155C67.5234 6.95177 67.1335 7.30027 66.3535 7.55707L65.0556 7.66712C64.8118 7.72826 64.69 7.79552 64.69 7.86889C64.6778 8.77378 64.6717 9.29959 64.6717 9.44633C64.6717 10.5224 64.8118 11.2989 65.0921 11.7758H65.0556C64.3853 11.4579 64.0501 10.3635 64.0501 8.49253C64.0501 8.18682 64.0562 7.68546 64.0684 6.98845C64.2756 6.54823 64.6656 6.32812 65.2384 6.32812H65.6771C66.3474 6.32812 66.7557 6.11413 66.9019 5.68614V0.403533L66.8653 0.275136ZM36.154 0.440217H36.1906V5.59443C36.1906 5.97351 36.5257 6.21807 37.196 6.32812H37.8541C38.4635 6.32812 38.8474 6.56046 39.0058 7.02514C39.0302 7.08628 39.0424 7.16576 39.0424 7.26359V7.66712C39.0424 9.3913 38.8778 10.449 38.5488 10.8404C38.4513 11.0238 38.3903 11.1216 38.366 11.1338V11.0788C38.5488 10.6019 38.6402 9.80707 38.6402 8.69429C38.628 8.59647 38.6219 8.41304 38.6219 8.14402V7.86889C38.6219 7.67323 38.0918 7.57541 37.0315 7.57541C36.2028 7.33084 35.7884 6.97622 35.7884 6.51155V1.0822C35.7884 0.874321 35.9103 0.660326 36.154 0.440217ZM56.9207 0.45856H56.9573V0.495245C54.3127 8.41916 52.8868 12.6624 52.6796 13.2249C52.5943 13.3349 52.5334 13.3899 52.4968 13.3899V13.3349C54.9586 5.92459 56.3662 1.71196 56.7196 0.697011C56.8415 0.538043 56.9085 0.45856 56.9207 0.45856ZM65.3115 12.0143C65.3237 12.051 65.476 12.1427 65.7685 12.2894C65.8782 12.4361 65.933 12.5523 65.933 12.6379V12.748C65.933 12.9558 65.7624 13.1515 65.4212 13.3349C64.9337 13.873 64.69 15.0102 64.69 16.7466V18.1039L64.6717 18.159C64.2695 17.9878 64.0684 17.7799 64.0684 17.5353V15.7561C64.0684 13.8118 64.4401 12.5707 65.1835 12.0326L65.3115 12.0143ZM37.5433 12.0693C38.5549 12.4728 39.0606 13.5183 39.0606 15.2058C39.0606 15.6216 39.0545 16.3675 39.0424 17.4436C39.0424 17.7126 38.9022 17.9144 38.6219 18.0489V18.0122C38.6585 17.1562 38.6767 16.4959 38.6767 16.0312C38.6767 14.6861 38.3477 13.8057 37.6896 13.3899C37.1412 13.231 36.867 12.9986 36.867 12.6929C36.867 12.3872 37.0924 12.1793 37.5433 12.0693ZM45.3674 15.1508H45.5137C46.1596 15.1508 46.5617 15.4993 46.7202 16.1963C48.792 21.7724 49.8888 24.6644 50.0107 24.8723C50.2788 25.1168 50.5957 25.2391 50.9613 25.2391H52.1861C52.6979 25.2391 53.0513 25.0557 53.2463 24.6889C55.245 19.2717 56.3662 16.2636 56.61 15.6644C56.8781 15.3832 57.2071 15.2425 57.5971 15.2425H57.7982C58.31 15.2425 58.6757 15.4382 58.895 15.8295C58.9194 15.964 58.9316 16.0679 58.9316 16.1413V17.3336C58.9316 17.676 58.7975 17.9144 58.5294 18.0489H58.5111V16.7466C58.5111 16.6488 58.304 16.5693 57.8896 16.5082H57.7799C57.3412 16.5082 57.0852 16.6916 57.0121 17.0584C56.6709 18.0489 56.4637 18.5686 56.3906 18.6175C56.2565 18.6909 56.1895 18.8499 56.1895 19.0944V24.4321C56.1895 24.75 56.3479 24.9762 56.6648 25.1107C56.8598 25.1963 57.067 25.2391 57.2863 25.2391C58.8828 25.0557 60.2904 24.964 61.5091 24.964C62.6669 24.964 64.1172 25.0557 65.8599 25.2391C66.3718 25.2391 66.7191 25.0312 66.9019 24.6155V18.9293L66.8653 18.7826H66.9019C67.3163 19.0272 67.5234 19.3268 67.5234 19.6814V25.4226C67.5234 25.9606 67.0421 26.3274 66.0793 26.5231H65.9148C64.0379 26.3397 62.606 26.248 61.6188 26.248C60.5951 26.248 59.1875 26.3397 57.396 26.5231H57.3412C56.6831 26.5231 56.1956 26.248 55.8787 25.6977C55.8178 25.6121 55.7873 25.4898 55.7873 25.3308V20.3967H55.7691C54.526 23.8451 53.8374 25.6793 53.7033 25.8995C53.3499 26.3152 52.8807 26.5231 52.2957 26.5231H51.071C50.1082 26.5231 49.5171 26.0156 49.2977 25.0007C48.1522 21.9803 47.5672 20.409 47.5428 20.2867H47.5062V25.3308C47.5062 25.9789 47.0005 26.3764 45.989 26.5231H45.8976C43.9476 26.3152 42.54 26.2113 41.6748 26.2113C40.5901 26.2113 39.1764 26.3152 37.4337 26.5231H37.3423C36.672 26.5231 36.1723 26.2418 35.8433 25.6793C35.8067 25.5571 35.7884 25.4715 35.7884 25.4226V19.5713C35.7884 19.4001 35.9103 19.2045 36.154 18.9844H36.1906V24.5054C36.1906 24.8478 36.4587 25.0863 36.9949 25.2208C37.1046 25.233 37.2021 25.2391 37.2874 25.2391C38.9205 25.0312 40.3037 24.9273 41.4371 24.9273C42.5583 24.9273 44.0268 25.0312 45.8427 25.2391C46.5374 25.1413 46.8847 24.909 46.8847 24.5421V18.9844L46.8664 18.7826H46.8847C46.9213 18.8071 46.9517 18.8193 46.9761 18.8193C46.4643 17.4253 46.184 16.6855 46.1352 16.5999C45.9402 16.4898 45.7208 16.4348 45.4771 16.4348C45.1602 16.4348 44.9348 16.5082 44.8007 16.6549V18.1039L44.7824 18.159C44.3803 18 44.1792 17.7921 44.1792 17.5353V15.8295C44.3132 15.377 44.7093 15.1508 45.3674 15.1508Z" fill="white"/>
<path d="M76.3529 0H77.1573C78.6685 0 80.003 0.195652 81.1607 0.586957H81.1973C81.4167 0.586957 81.6056 0.440217 81.764 0.146739C81.9833 0.048913 82.1357 0 82.221 0H85.3652C85.5968 0 85.804 0.0733696 85.9868 0.220109C85.7309 1.95652 85.6029 3.58288 85.6029 5.09918V5.55774C85.6029 6.7928 85.7248 8.16236 85.9685 9.66644C85.871 9.83764 85.4932 9.92323 84.8351 9.92323H82.8425C82.1722 9.92323 81.7823 9.82541 81.6726 9.62976V9.42799C81.6726 8.10734 81.5141 7.3125 81.1973 7.04348C80.6367 6.32201 79.7653 5.96128 78.5832 5.96128H78.3272C76.7917 5.96128 75.7741 6.40761 75.2744 7.30027C75.1038 7.71603 75.0185 8.05842 75.0185 8.32745V9.11617C75.0185 9.17731 75.0124 9.22622 75.0002 9.26291L75.0185 9.42799V9.73981C75.0185 10.6814 75.2927 11.4457 75.8411 12.0326C75.2805 12.5707 75.0002 13.4327 75.0002 14.6189C75.0002 16.2208 75.1038 17.1379 75.311 17.3702C75.8228 18.373 76.8039 18.8743 78.2541 18.8743H78.51C79.8628 18.8743 80.8317 18.3607 81.4167 17.3336C81.5873 16.8811 81.6726 16.4715 81.6726 16.1046V15.1141C81.8066 14.9185 82.0443 14.8207 82.3855 14.8207H85.2738C85.6151 14.8207 85.8527 14.9185 85.9868 15.1141V19.8648C85.9868 22.2615 85.1337 23.7962 83.4275 24.4687C82.2454 24.9823 80.655 25.2391 78.6563 25.2391H78.6014C74.726 25.2391 72.3129 24.4198 71.3624 22.7812C70.9236 22.0842 70.7043 21.002 70.7043 19.5346V17.7371C70.7043 14.7656 70.2777 12.8641 69.4246 12.0326V11.9959C70.2777 11.1522 70.7043 9.0428 70.7043 5.6678V4.27378C70.7043 2.53736 71.3075 1.37568 72.514 0.788723C73.4646 0.262908 74.7443 0 76.3529 0ZM86.3524 0.0733696C86.5474 0.0733696 86.7485 0.275136 86.9557 0.678668C86.9922 0.752038 87.0105 0.831522 87.0105 0.91712V0.990489C86.7424 3.11821 86.6083 4.79348 86.6083 6.0163C86.6083 7.37364 86.7424 8.84715 87.0105 10.4368V10.5469C87.0105 11.0727 86.5474 11.4457 85.6212 11.6658C85.4749 11.678 85.3165 11.6841 85.1459 11.6841H82.6414C81.6177 11.6841 81.0023 11.3417 80.7951 10.6569C80.7464 9.20177 80.6428 8.47418 80.4843 8.47418C80.1797 7.97283 79.5033 7.72215 78.4552 7.72215C77.3218 7.72215 76.5967 7.97283 76.2798 8.47418C76.1214 8.65761 76.0422 9.00611 76.0422 9.5197V10.2351C76.0422 10.9321 76.1579 11.4762 76.3895 11.8675H76.3529C75.7436 11.5129 75.4328 10.7425 75.4206 9.55639V8.65761C75.4206 7.17799 76.3651 6.43818 78.2541 6.43818H78.4369C79.8141 6.43818 80.6732 6.89674 81.0145 7.81386C81.112 8.03397 81.1607 8.63315 81.1607 9.61141C81.1607 10.1372 81.6909 10.4001 82.7511 10.4001H84.8351C85.6395 10.4001 86.1391 10.2412 86.3341 9.92323L86.389 9.72147C86.1208 8.11957 85.9868 6.68274 85.9868 5.41101C85.9868 3.9803 86.1208 2.23166 86.389 0.165082C86.3646 0.128397 86.3524 0.0978261 86.3524 0.0733696ZM70.558 2.10937V2.12772C70.3143 2.73913 70.1924 3.42391 70.1924 4.18207V5.46603C70.1924 8.74321 69.8512 10.7486 69.1687 11.4823V11.4273C69.583 10.6936 69.7902 8.59647 69.7902 5.13587V4.75068C69.7902 3.69905 70.0462 2.81861 70.558 2.10937ZM76.6454 12.1243C77.011 12.3567 77.206 12.5034 77.2304 12.5645C77.2792 12.6379 77.3035 12.7174 77.3035 12.803V12.913C77.3035 13.1209 77.0659 13.3288 76.5906 13.5367C76.225 13.8791 76.0422 14.4599 76.0422 15.2792V16.3064C76.0422 17.1257 76.1458 17.6576 76.3529 17.9022V17.9572C75.7314 17.5904 75.4206 16.8322 75.4206 15.6827C75.4206 15.2792 75.4084 14.9918 75.3841 14.8207C75.3841 13.4266 75.7253 12.5523 76.4078 12.1977L76.6454 12.1243ZM68.7117 12.1793C69.6988 12.6196 70.1924 14.6067 70.1924 18.1406V19.9015C70.1924 22.3471 71.1125 23.9796 72.9528 24.7989C74.3055 25.4103 76.097 25.716 78.3272 25.716H78.7111C82.3307 25.716 84.6523 24.8601 85.676 23.1481C86.1513 22.2677 86.389 21.3383 86.389 20.3601V15.0591L86.3524 14.9124H86.4255C86.8155 15.1569 87.0105 15.4626 87.0105 15.8295V21.1304C87.0105 22.9158 86.4072 24.3281 85.2007 25.3675C83.8236 26.4558 81.7396 27 78.9488 27H78.3272C72.6359 27 69.7902 24.9946 69.7902 20.9837V19.553C69.7902 15.75 69.382 13.6957 68.5654 13.3899C68.3461 13.2921 68.2059 13.1637 68.145 13.0048V12.748C68.145 12.5645 68.3339 12.375 68.7117 12.1793ZM81.1242 15.1141H81.1607V16.1046C81.1607 16.6182 81.0023 17.1135 80.6854 17.5904H80.6123C80.7098 17.2969 80.7586 17.0095 80.7586 16.7283V15.7928C80.7586 15.5605 80.8804 15.3342 81.1242 15.1141Z" fill="white"/>
<path d="M93.9937 0.256793C96.0045 0.574728 97.857 0.733696 99.551 0.733696H99.8617C101.556 0.733696 103.451 0.574728 105.547 0.256793H105.584C105.827 0.256793 106.022 0.342391 106.169 0.513587V5.63111C106.034 5.81454 105.821 5.90625 105.529 5.90625H104.706C104.255 5.90625 104.03 6.09579 104.03 6.47486C104.858 8.98166 105.517 10.5346 106.004 11.1338C106.333 11.5374 106.711 11.8675 107.137 12.1243V12.1427C106.967 12.4239 106.881 12.7846 106.881 13.2249V13.2432C106.881 14.2337 107.338 15.8478 108.252 18.0856C108.606 18.5136 109.13 18.7276 109.825 18.7276H110.282C110.623 18.7276 110.861 18.8193 110.995 19.0027V24.4871C110.836 24.6827 110.617 24.7806 110.336 24.7806C109.008 24.5849 107.741 24.4871 106.534 24.4871H106.37C105.127 24.4871 103.652 24.5849 101.946 24.7806C101.69 24.7806 101.483 24.6827 101.324 24.4871V19.0027C101.361 18.8193 101.842 18.7092 102.768 18.6726C103.5 18.428 103.865 18.0489 103.865 17.5353V17.4803C103.865 17.3336 103.591 16.5326 103.043 15.0774C102.921 14.6617 102.707 14.3621 102.403 14.1787C102.049 14.0075 101.684 13.9219 101.306 13.9219H98.1799C97.2903 13.9219 96.7175 14.3193 96.4615 15.1141C95.9009 16.5571 95.6206 17.3641 95.6206 17.5353C95.6206 18.1101 96.0533 18.4952 96.9186 18.6909C97.6376 18.6909 98.0398 18.7887 98.1251 18.9844V24.5238C97.9788 24.695 97.7595 24.7806 97.467 24.7806C95.9314 24.536 94.4263 24.4137 92.9517 24.4137H92.9151C91.8183 24.4137 90.5508 24.536 89.1128 24.7806C88.869 24.7806 88.6618 24.6827 88.4912 24.4871V19.0027C88.6253 18.8193 88.8629 18.7276 89.2042 18.7276H89.6429C90.4716 18.7276 91.0261 18.4524 91.3064 17.9022C92.2448 15.6766 92.714 14.1236 92.714 13.2432C92.714 12.8274 92.6043 12.4423 92.385 12.0876V12.0326C93.2624 11.3356 93.8718 10.5713 94.213 9.73981C94.5055 9.18954 94.9382 8.10734 95.511 6.49321C95.511 6.1019 95.2855 5.90625 94.8346 5.90625H94.0119C93.7073 5.90625 93.494 5.81454 93.3721 5.63111V0.513587C93.5184 0.342391 93.7256 0.256793 93.9937 0.256793ZM106.571 0.348505H106.589C107.003 0.556386 107.21 0.94769 107.21 1.52242V6.18139C107.21 6.85394 106.93 7.30027 106.37 7.52038C106.016 7.63043 105.651 7.68546 105.273 7.68546C105.906 9.54416 106.388 10.6997 106.717 11.1522C106.729 11.1644 106.802 11.2622 106.936 11.4457V11.464C106.327 11.0971 105.724 10.0639 105.127 8.36413L104.45 6.43818L104.542 6.38315H105.492C106.211 6.28533 106.571 6.07133 106.571 5.74117V0.348505ZM92.8237 0.513587H92.8603V5.68614C92.8603 6.08967 93.2442 6.32201 94.0119 6.38315H94.9077C94.9443 6.39538 94.9625 6.41372 94.9625 6.43818V6.47486C94.3776 8.26019 93.8535 9.48913 93.3904 10.1617V10.1067C93.7316 9.44633 94.0607 8.63927 94.3776 7.68546H94.3593C93.0796 7.68546 92.4398 7.1841 92.4398 6.18139V1.61413C92.4398 1.0394 92.5678 0.672554 92.8237 0.513587ZM97.6681 11.8308C97.6681 12.3933 98.0641 12.7785 98.8563 12.9864C99.0025 13.0353 99.161 13.0598 99.3316 13.0598H100.264C101.019 13.0598 101.544 12.7724 101.836 12.1977C101.873 12.1243 101.891 12.0204 101.891 11.8859V11.8125C101.891 11.6291 101.556 10.5102 100.885 8.45584C100.544 7.55095 100.185 7.09851 99.8069 7.09851C99.3194 7.09851 98.8807 7.78329 98.4907 9.15285C98.2469 9.84986 97.9727 10.7425 97.6681 11.8308ZM99.6972 7.59375H99.7338C100.063 7.59375 100.587 8.9144 101.306 11.5557C101.355 11.6168 101.379 11.7086 101.379 11.8308V11.9409C101.379 12.0876 101.251 12.2527 100.995 12.4361H100.904C100.538 11.0788 100.191 9.9966 99.8617 9.18954H99.8434C99.5266 10.0088 99.1671 11.1155 98.7649 12.5095H98.7466C98.3079 12.375 98.0885 12.161 98.0885 11.8675C98.6491 9.81318 99.1305 8.4375 99.5327 7.74049L99.6972 7.59375ZM107.777 12.0876C108.265 12.2221 108.508 12.43 108.508 12.7113V12.7663C108.508 12.9986 108.356 13.1882 108.051 13.3349C107.978 13.4694 107.923 13.6773 107.887 13.9586C107.887 14.7045 108.271 16.0985 109.039 18.1406C108.734 18.1406 108.466 17.7126 108.234 16.8567C107.588 15.2181 107.265 14.0319 107.265 13.2982C107.265 12.699 107.436 12.2955 107.777 12.0876ZM91.6538 12.1243C92.0316 12.3322 92.2205 12.7418 92.2205 13.3533C92.2205 14.1114 91.7391 15.6094 90.7763 17.8471L90.63 17.9572V17.9022C91.3978 16.0312 91.7817 14.7595 91.7817 14.087V13.9769C91.7817 13.5611 91.5989 13.2982 91.2333 13.1882C91.0749 13.0537 90.9957 12.9253 90.9957 12.803V12.7113C90.9957 12.4178 91.215 12.2221 91.6538 12.1243ZM98.1799 14.3988H101.251C101.982 14.3988 102.421 14.6923 102.567 15.2792C103.091 16.6977 103.353 17.4436 103.353 17.517V17.5904C103.353 17.8105 103.195 17.9817 102.878 18.1039C102.403 16.7466 102.11 15.9946 102.001 15.8478C101.854 15.7378 101.592 15.6827 101.214 15.6827H98.4358C97.9118 15.6827 97.6132 15.7867 97.5401 15.9946C97.0039 17.4253 96.7114 18.159 96.6626 18.1957H96.6261C96.3458 18.0856 96.1508 17.9144 96.0411 17.6821V17.462C96.6504 15.7622 97.016 14.8573 97.1379 14.7473C97.3938 14.5149 97.7412 14.3988 98.1799 14.3988ZM98.509 18.8193H98.5455C98.9599 19.0516 99.1671 19.3696 99.1671 19.7731V25.3125C99.1671 25.9239 98.6979 26.3274 97.7595 26.5231H97.5035C95.6755 26.2785 94.2557 26.1562 93.2442 26.1562C92.0864 26.1562 90.7641 26.2785 89.2773 26.5231H89.1493C88.4547 26.5231 87.9489 26.2235 87.632 25.6243L87.5955 25.4226V19.608C87.5955 19.4368 87.7173 19.2289 87.9611 18.9844H87.9976V24.5238C88.1073 25.0129 88.4729 25.2575 89.0945 25.2575C90.5447 25.0129 91.8061 24.8906 92.8786 24.8906C94.2557 24.8906 95.7852 25.0129 97.467 25.2575C98.186 25.1474 98.5455 24.909 98.5455 24.5421V19.0027L98.509 18.8193ZM111.36 18.8193H111.415C111.805 19.0639 112 19.3635 112 19.7181V25.4226C112 25.8261 111.683 26.1562 111.049 26.413C110.854 26.4864 110.666 26.5231 110.483 26.5231H110.373C108.813 26.3397 107.564 26.248 106.626 26.248C105.504 26.248 103.963 26.3397 102.001 26.5231H101.982C101.336 26.5231 100.837 26.2418 100.483 25.6793C100.447 25.5082 100.428 25.3859 100.428 25.3125V19.8281C100.428 19.4613 100.55 19.1861 100.794 19.0027H100.831V24.3404C100.831 24.7439 101.007 25.0129 101.361 25.1474C101.604 25.2208 101.793 25.2575 101.927 25.2575C103.634 25.0618 105.133 24.964 106.424 24.964C107.558 24.964 108.862 25.0618 110.336 25.2575C110.848 25.2575 111.196 25.0496 111.378 24.6338V18.9477L111.36 18.8193Z" fill="white"/>
</svg>
